<svg xmlns="http://www.w3.org/2000/svg" width="45" height="45" fill="none" viewBox="0 0 45 45"><circle cx="22.5" cy="22.5" r="22.5" fill="#fff"/><circle cx="22.154" cy="22.845" r="13.154" fill="#DED3FD"/><path stroke="#9875FF" stroke-linecap="round" stroke-width="1.879" d="M20.6975 22.0928L16.9392 30.5018"/><path stroke="#9875FF" stroke-linecap="round" stroke-width="1.879" d="M22.9056 22.0928L26.6638 30.5018"/><path stroke="#9875FF" stroke-linecap="round" stroke-width="1.879" d="M21.7781 15.9873V18.2422"/><path stroke="#9875FF" stroke-width="1.879" d="M23.6573 20.6847C23.6573 21.6555 22.8522 22.4699 21.8252 22.4699C20.7981 22.4699 19.993 21.6555 19.993 20.6847C19.993 19.7138 20.7981 18.8995 21.8252 18.8995C22.8522 18.8995 23.6573 19.7138 23.6573 20.6847Z"/><path stroke="#9875FF" stroke-linecap="round" stroke-width="1.879" d="M20.8386 29.5164H21.4493C24.8482 29.5164 27.6035 26.7611 27.6035 23.3623V23.3623"/><path stroke="#9875FF" stroke-linecap="round" stroke-width="1.879" d="M29.3415 16.1282L28.8947 15.7026C27.8899 14.7456 26.6842 14.0249 25.3656 13.5929V13.5929C23.1487 12.8667 20.7402 12.9975 18.615 13.9596L18.3051 14.0999C16.1529 15.0742 14.4193 16.8176 13.4438 18.9692V18.9692C12.2446 21.6139 12.2971 24.6953 13.5957 27.2926V27.2926C14.6843 29.4696 16.5662 31.1601 18.8499 32.0023L18.9408 32.0359C20.8715 32.7479 22.9839 32.7986 24.9465 32.1801V32.1801C27.899 31.2496 30.2073 28.8636 31.0798 25.8935V25.8935C31.5959 24.1364 31.5968 22.2412 31.068 20.4879L30.9858 20.2152"/></svg>