<svg xmlns="http://www.w3.org/2000/svg" width="45" height="45" fill="none" viewBox="0 0 45 45"><circle cx="22.5" cy="22.5" r="22.5" fill="#fff"/><path fill="#199AA2" d="M11.7261 16.5934C11.7261 15.8407 11.1158 15.2305 10.3631 15.2305C9.61034 15.2305 9.00011 15.8407 9.00011 16.5934V29.8266C9.00011 30.1771 9.28424 30.4612 9.63473 30.4612H10.4568C11.1578 30.4612 11.7261 29.893 11.7261 29.192V16.5934Z"/><path fill="#199AA2" d="M32.582 21.2888C32.582 20.536 33.1923 19.9258 33.945 19.9258C34.6978 19.9258 35.308 20.536 35.308 21.2888V29.8258C35.308 30.1763 35.0239 30.4604 34.6734 30.4604H33.8513C33.1503 30.4604 32.582 29.8921 32.582 29.1912V21.2888Z"/><rect width="21.462" height="2.708" x="11.423" y="25.602" fill="#199AA2"/><rect width="19.731" height="2.369" x="12.462" y="22.556" fill="#B8DEE1" rx="1.185"/><path fill="#B8DEE1" d="M12.4619 20.0352C12.4619 18.7773 13.6936 17.8885 14.8874 18.2849L19.3329 19.761C19.7774 19.9086 20.0773 20.3243 20.0773 20.7926C20.0773 21.3929 19.5907 21.8795 18.9904 21.8795H14.3062C13.2876 21.8795 12.4619 21.0538 12.4619 20.0352Z"/></svg>