<svg width="45" height="45" viewBox="0 0 45 45" fill="none" xmlns="http://www.w3.org/2000/svg">
<circle cx="22.5" cy="22.5" r="22.5" fill="white"/>
<path d="M15.3943 14.8801L21.7704 11.9563C22.029 11.8377 22.3264 11.8379 22.5847 11.9568L28.9394 14.8802C29.0821 14.9458 29.0353 15.1595 28.8783 15.1595H15.4553C15.2982 15.1595 15.2515 14.9456 15.3943 14.8801Z" fill="#F1B334"/>
<path d="M12.7646 22.4517V22.281C12.7646 22.1463 12.8738 22.0371 13.0085 22.0371H31.5607C31.6953 22.0371 31.8045 22.1463 31.8045 22.281V22.4517C31.8045 22.5864 31.6953 22.6956 31.5607 22.6956H31.1214C30.9867 22.6956 30.8775 22.8048 30.8775 22.9395V29.0853C30.8775 29.22 30.9867 29.3292 31.1214 29.3292H32.1311C32.2658 29.3292 32.375 29.4383 32.375 29.573V30.6461C32.375 30.7808 32.4842 30.89 32.6189 30.89H32.9869C33.1216 30.89 33.2308 30.9992 33.2308 31.1339V32.9874C33.2308 33.1221 33.1216 33.2313 32.9869 33.2313H11.3208C11.1861 33.2313 11.0769 33.1221 11.0769 32.9874V31.1339C11.0769 30.9992 11.1861 30.89 11.3208 30.89H11.7601C11.8948 30.89 12.0039 30.7808 12.0039 30.6461V29.573C12.0039 29.4383 12.1131 29.3292 12.2478 29.3292H13.2576C13.3923 29.3292 13.5015 29.22 13.5015 29.0853V22.9395C13.5015 22.8048 13.3923 22.6956 13.2576 22.6956H13.0085C12.8738 22.6956 12.7646 22.5864 12.7646 22.4517Z" fill="#F1B334"/>
<rect x="15.7834" y="22.6953" width="2.51964" height="6.58479" rx="0.487762" fill="white"/>
<rect x="11.0769" y="15.6719" width="22.1538" height="5.85315" rx="0.975524" fill="#F8E6C0"/>
<rect x="20.4897" y="22.6953" width="3.32783" height="6.58479" rx="0.487762" fill="white"/>
<rect x="26.1472" y="22.6953" width="2.51964" height="6.58479" rx="0.487762" fill="white"/>
<path d="M13.5612 19.6314H14.683V20.1729H12.8783V16.7683H13.5612V19.6314ZM15.7999 16.7683V20.1729H15.1171V16.7683H15.7999ZM18.4061 18.4267C18.598 18.4624 18.7557 18.5584 18.8793 18.7144C19.0028 18.8705 19.0646 19.0494 19.0646 19.251C19.0646 19.4331 19.0191 19.594 18.928 19.7339C18.8402 19.8704 18.7118 19.9777 18.5427 20.0558C18.3736 20.1338 18.1736 20.1729 17.9428 20.1729H16.4746V16.7683H17.8794C18.1102 16.7683 18.3086 16.8057 18.4744 16.8805C18.6435 16.9552 18.7703 17.0593 18.8549 17.1926C18.9427 17.3259 18.9866 17.4772 18.9866 17.6462C18.9866 17.8446 18.9329 18.0104 18.8256 18.1438C18.7216 18.2771 18.5817 18.3714 18.4061 18.4267ZM17.1575 18.173H17.7818C17.9444 18.173 18.0696 18.1373 18.1574 18.0657C18.2452 17.9909 18.2891 17.8852 18.2891 17.7487C18.2891 17.6121 18.2452 17.5064 18.1574 17.4316C18.0696 17.3568 17.9444 17.3194 17.7818 17.3194H17.1575V18.173ZM17.8452 19.6168C18.011 19.6168 18.1395 19.5778 18.2305 19.4997C18.3248 19.4217 18.372 19.3111 18.372 19.1681C18.372 19.0217 18.3232 18.9079 18.2257 18.8266C18.1281 18.7421 17.9964 18.6998 17.8306 18.6998H17.1575V19.6168H17.8452ZM21.3648 20.1729L20.6136 18.8461H20.2917V20.1729H19.6089V16.7683H20.8868C21.1502 16.7683 21.3746 16.8154 21.5599 16.9097C21.7453 17.0008 21.8834 17.126 21.9745 17.2853C22.0688 17.4414 22.1159 17.617 22.1159 17.8121C22.1159 18.0365 22.0509 18.2397 21.9208 18.4218C21.7908 18.6006 21.5973 18.7242 21.3404 18.7925L22.155 20.1729H21.3648ZM20.2917 18.334H20.8624C21.0478 18.334 21.1859 18.2901 21.277 18.2023C21.368 18.1112 21.4136 17.9861 21.4136 17.8267C21.4136 17.6706 21.368 17.5503 21.277 17.4658C21.1859 17.378 21.0478 17.3341 20.8624 17.3341H20.2917V18.334ZM24.8212 19.5241H23.4652L23.2409 20.1729H22.5238L23.7481 16.7634H24.5432L25.7675 20.1729H25.0456L24.8212 19.5241ZM24.6359 18.9778L24.1432 17.5536L23.6506 18.9778H24.6359ZM27.981 20.1729L27.2299 18.8461H26.9079V20.1729H26.2251V16.7683H27.503C27.7664 16.7683 27.9908 16.8154 28.1761 16.9097C28.3615 17.0008 28.4997 17.126 28.5907 17.2853C28.685 17.4414 28.7322 17.617 28.7322 17.8121C28.7322 18.0365 28.6671 18.2397 28.5371 18.4218C28.407 18.6006 28.2135 18.7242 27.9566 18.7925L28.7712 20.1729H27.981ZM26.9079 18.334H27.4786C27.664 18.334 27.8022 18.2901 27.8932 18.2023C27.9843 18.1112 28.0298 17.9861 28.0298 17.8267C28.0298 17.6706 27.9843 17.5503 27.8932 17.4658C27.8022 17.378 27.664 17.3341 27.4786 17.3341H26.9079V18.334ZM32.0569 16.7683L30.9058 18.9876V20.1729H30.2229V18.9876L29.0669 16.7683H29.8376L30.5692 18.3242L31.296 16.7683H32.0569Z" fill="white"/>
</svg>
