<svg width="45" height="45" viewBox="0 0 45 45" fill="none" xmlns="http://www.w3.org/2000/svg">
<circle cx="22.5" cy="22.5" r="22.5" fill="white"/>
<path d="M19.0461 12.1086V11.4132C19.0461 10.7812 19.5585 10.2689 20.1905 10.2689C20.6655 10.2689 21.0911 9.97541 21.26 9.53145L21.3585 9.27276C21.8495 7.98222 23.6791 7.99354 24.1542 9.29004L24.2581 9.57373C24.4111 9.99125 24.8085 10.2689 25.2531 10.2689C25.8384 10.2689 26.3128 10.7433 26.3128 11.3285V12.1086C26.3128 12.6166 25.901 13.0285 25.3929 13.0285H19.966C19.458 13.0285 19.0461 12.6166 19.0461 12.1086Z" fill="#F67474" stroke="#F67474" stroke-width="1.3141" stroke-linecap="round"/>
<path d="M17.7129 25.9727H21.3129" stroke="#FAD3D3" stroke-width="2.62821" stroke-linecap="round"/>
<path d="M24.3132 26.0381H27.9132" stroke="#FAD3D3" stroke-width="2.62821" stroke-linecap="round"/>
<path d="M17.7798 29.4551H21.3798" stroke="#FAD3D3" stroke-width="2.62821" stroke-linecap="round"/>
<path d="M24.3796 29.5215H27.9796" stroke="#FAD3D3" stroke-width="2.62821" stroke-linecap="round"/>
<path d="M20.4057 19.8528L20.1073 19.1609C19.7849 18.4131 18.8196 18.2095 18.2225 18.7633C17.6808 19.2658 17.7294 20.137 18.3235 20.5762L19.8862 21.7313C20.9353 22.5067 22.3944 22.3953 23.3136 21.4695L27.1715 17.5836C27.517 17.2356 27.5434 16.6827 27.2326 16.3034C26.8154 15.7944 26.0207 15.849 25.6771 16.4102L23.437 20.0688C22.7125 21.2521 20.9551 21.1268 20.4057 19.8528Z" stroke="#F67474" stroke-width="2.62821" stroke-linecap="round"/>
<path d="M28.5129 12.1748H29.218C30.6695 12.1748 31.8462 13.3515 31.8462 14.803V31.295C31.8462 32.7465 30.6695 33.9232 29.218 33.9232H16.4744C15.0229 33.9232 13.8462 32.7465 13.8462 31.295V14.803C13.8462 13.3515 15.0229 12.1748 16.4744 12.1748H16.8462" stroke="#F67474" stroke-width="2.62821" stroke-linecap="round"/>
<ellipse cx="22.7794" cy="9.94118" rx="1.6" ry="1.57692" fill="#FAD3D3"/>
</svg>
