<svg width="45" height="45" viewBox="0 0 45 45" fill="none" xmlns="http://www.w3.org/2000/svg">
<circle cx="22.5" cy="22.5" r="22.5" fill="white"/>
<ellipse cx="22.6933" cy="24.5919" rx="9.25358" ry="9.29408" fill="#08BD80"/>
<ellipse cx="23.4577" cy="24.3229" rx="8.02996" ry="8.06511" fill="#B3E9D7"/>
<path d="M11.1653 30.0606C11.2311 30.4301 11.5524 30.6992 11.9277 30.6992H33.4443C33.8088 30.6992 34.1239 30.4451 34.2011 30.0889L35.4914 24.1352C35.7528 22.9288 34.8337 21.7892 33.5994 21.7892H12.0034C10.7983 21.7892 9.8861 22.8783 10.0974 24.0646L11.1653 30.0606Z" fill="#08BD80"/>
<path d="M11.8786 30.4756C11.9404 30.8225 12.242 31.0752 12.5944 31.0752H32.7975C33.1397 31.0752 33.4356 30.8366 33.5081 30.5021L34.7197 24.9119C34.9651 23.7792 34.1021 22.7091 32.9431 22.7091H12.6655C11.534 22.7091 10.6775 23.7317 10.8759 24.8456L11.8786 30.4756Z" fill="#B3E9D7"/>
<path d="M9.69214 30.8965C9.69214 30.4688 10.0388 30.1221 10.4665 30.1221H35.2254C35.6531 30.1221 35.9998 30.4688 35.9998 30.8965V32.6795C35.9998 33.7487 35.1331 34.6155 34.0639 34.6155H11.6281C10.5589 34.6155 9.69214 33.7487 9.69214 32.6795V30.8965Z" fill="#08BD80"/>
<path d="M11.8716 31.5393C11.8716 31.181 12.162 30.8906 12.5202 30.8906H34.9687C35.3269 30.8906 35.6173 31.181 35.6173 31.5393V32.6103C35.6173 33.5059 34.8913 34.2319 33.9958 34.2319H13.4932C12.5976 34.2319 11.8716 33.5059 11.8716 32.6103V31.5393Z" fill="#B3E9D7"/>
<ellipse cx="22.6931" cy="13.6085" rx="5.27683" ry="5.29993" fill="#08BD80"/>
<ellipse cx="22.9034" cy="13.9726" rx="4.49296" ry="4.51262" fill="#B3E9D7"/>
</svg>
