<svg width="18" height="21" viewBox="0 0 18 21" fill="none" xmlns="http://www.w3.org/2000/svg">
<path d="M14.7881 19L14.7881 2" stroke="#003482" stroke-width="2.45227" stroke-linecap="round"/>
<path d="M8.94165 19L8.94165 2" stroke="#003482" stroke-width="2.45227" stroke-linecap="round"/>
<path d="M3.09497 19L3.09497 2" stroke="#003482" stroke-width="2.45227" stroke-linecap="round"/>
<path d="M14.9142 11.5302C13.5858 11.5302 12.5187 12.5966 12.5187 13.9C12.5187 15.2033 13.5858 16.2697 14.9142 16.2697C16.2427 16.2697 17.3097 15.2033 17.3097 13.9C17.3097 12.5966 16.2427 11.5302 14.9142 11.5302Z" fill="white" stroke="#003482" stroke-width="1.38054"/>
<path d="M3.08586 4.7314C1.75739 4.7314 0.690356 5.79781 0.690356 7.10113C0.690356 8.40445 1.75739 9.47086 3.08586 9.47086C4.41433 9.47086 5.48136 8.40445 5.48136 7.10113C5.48136 5.79781 4.41433 4.7314 3.08586 4.7314Z" fill="white" stroke="#003482" stroke-width="1.38054"/>
</svg>
