<svg xmlns="http://www.w3.org/2000/svg" width="18" height="18" fill="none" viewBox="0 0 18 18"><path fill="#003482" d="M17.4451 15.3151L13.1809 11.6913C12.7408 11.2954 12.2688 11.1114 11.8888 11.1314C12.8968 9.95143 13.5049 8.42352 13.5049 6.75161C13.5009 3.01983 10.4807 0 6.75244 0C3.0242 0 0 3.01983 0 6.75161C0 10.4834 3.0202 13.5032 6.75244 13.5032C8.42455 13.5032 9.95265 12.8953 11.1327 11.8873C11.1127 12.2673 11.2967 12.7393 11.6928 13.1792L15.317 17.443C15.937 18.131 16.9531 18.191 17.5692 17.571C18.1892 16.951 18.1332 15.9391 17.4451 15.3151ZM6.75244 11.2474C4.26828 11.2474 2.25215 9.23147 2.25215 6.74761C2.25215 4.26376 4.26428 2.24787 6.75244 2.24787C9.24061 2.24787 11.2527 4.26376 11.2527 6.74761C11.2527 9.23147 9.23661 11.2474 6.75244 11.2474Z"/></svg>