<svg xmlns="http://www.w3.org/2000/svg" width="45" height="45" fill="none" viewBox="0 0 45 45"><circle cx="22.5" cy="22.5" r="22.5" fill="#fff"/><path fill="#CAD3FD" stroke="#5873FF" stroke-width="1.377" d="M10.3845 28.4468V15.2237C10.3845 14.4632 11.001 13.8467 11.7615 13.8467H33.9306C34.6911 13.8467 35.3076 14.4632 35.3076 15.2237V28.4468C35.3076 29.2073 34.6911 29.8238 33.9306 29.8238H11.7615C11.001 29.8238 10.3845 29.2073 10.3845 28.4468Z"/><path stroke="#5873FF" stroke-linecap="round" stroke-width="2.066" d="M10.9236 33.2314H34.8363"/><path stroke="#5873FF" stroke-linecap="round" stroke-width="1.721" d="M26.5845 16.3496H33.1187"/><path stroke="#5873FF" stroke-linecap="round" stroke-width="1.721" d="M26.3826 19.0918H33.1185"/><path stroke="#5873FF" stroke-linecap="round" stroke-width="1.721" d="M25.2375 27.3213H33.1186"/><path stroke="#5873FF" stroke-linecap="round" stroke-width="1.721" d="M27.7297 21.8359H33.1185"/><path stroke="#5873FF" stroke-linecap="round" stroke-width="1.721" d="M28.7402 24.5781H33.1186"/><path fill="#CAD3FD" stroke="#5873FF" stroke-width="1.033" d="M18.726 19.333C18.726 19.9276 18.2549 20.3938 17.6931 20.3938C17.1313 20.3938 16.6602 19.9276 16.6602 19.333C16.6602 18.7384 17.1313 18.2722 17.6931 18.2722C18.2549 18.2722 18.726 18.7384 18.726 19.333Z"/><path stroke="#5873FF" stroke-linecap="round" stroke-width="1.377" d="M20.2526 24.3035V23.1832C20.2526 21.9463 19.2499 20.9435 18.0129 20.9435H17.7104C16.6405 20.9435 15.7732 21.8108 15.7732 22.8807V24.1661C15.7732 24.526 16.065 24.8178 16.4249 24.8178H18.7194C20.2475 24.8178 21.6341 23.9233 22.2642 22.5311V22.5311C22.4922 22.0271 22.6102 21.4802 22.6102 20.927V20.4762C22.6102 19.7463 22.4409 19.0259 22.1159 18.3723V18.3723C21.5492 17.2325 20.5461 16.3692 19.3345 15.979V15.979C18.4192 15.6843 17.4357 15.676 16.5155 15.9552L16.3192 16.0148C15.0971 16.3856 14.0468 17.1792 13.3563 18.2535L13.3078 18.3289C12.8685 19.0124 12.5825 19.783 12.4696 20.5877L12.4322 20.8545C12.3474 21.4582 12.3642 22.0717 12.4817 22.6699V22.6699C12.8878 24.7368 14.4441 26.3871 16.4837 26.9134L16.7995 26.9949C17.5453 27.1874 18.3213 27.2342 19.0848 27.1329L19.8583 27.0302C20.1202 26.9954 20.3767 26.9282 20.622 26.8301L20.7637 26.7734C21.6658 26.4127 22.4623 25.8302 23.0796 25.0799V25.0799C23.9302 24.0459 24.3953 22.7487 24.3953 21.4098V20.2578"/></svg>